<svg xmlns="http://www.w3.org/2000/svg" xmlns:xlink="http://www.w3.org/1999/xlink" width="2656pt" height="2490pt" viewBox="0.00 0.00 2656.00 2490.00">
<g id="graph0" class="graph" transform="scale(1 1) rotate(0) translate(4 2486.41)">
<title>ER</title>
<polygon fill="white" stroke="none" points="-4,4 -4,-2486.41 2651.9,-2486.41 2651.9,4 -4,4"/>
<!-- Hastalar -->
<g id="node1" class="node">
<title>Hastalar</title>
<path fill="#bbdefb" stroke="#424242" d="M1267.31,-1047.3C1267.31,-1047.3 1223.87,-1047.3 1223.87,-1047.3 1219.07,-1047.3 1214.27,-1042.5 1214.27,-1037.7 1214.27,-1037.7 1214.27,-1028.1 1214.27,-1028.1 1214.27,-1023.3 1219.07,-1018.5 1223.87,-1018.5 1223.87,-1018.5 1267.31,-1018.5 1267.31,-1018.5 1272.11,-1018.5 1276.91,-1023.3 1276.91,-1028.1 1276.91,-1028.1 1276.91,-1037.7 1276.91,-1037.7 1276.91,-1042.5 1272.11,-1047.3 1267.31,-1047.3"/>
<text xml:space="preserve" text-anchor="middle" x="1245.59" y="-1028.7" font-family="Times,serif" font-size="14.00">Hastalar</text>
</g>
<!-- H_id -->
<g id="node11" class="node">
<title>H_id</title>
<ellipse fill="white" stroke="#424242" cx="1337.92" cy="-589.85" rx="27" ry="14.4"/>
<text xml:space="preserve" text-anchor="start" x="1334.03" y="-587.85" font-family="Times,serif" text-decoration="underline" font-size="10.00">id</text>
</g>
<!-- Hastalar&#45;&#45;H_id -->
<g id="edge1" class="edge">
<title>Hastalar--H_id</title>
<path fill="none" stroke="#90a4ae" d="M1248.67,-1018.16C1262.71,-950.74 1320.76,-672.18 1334.83,-604.65"/>
</g>
<!-- H_tc -->
<g id="node12" class="node">
<title>H_tc</title>
<ellipse fill="white" stroke="#424242" cx="1179.39" cy="-832.72" rx="27" ry="14.4"/>
<text xml:space="preserve" text-anchor="middle" x="1179.39" y="-829.72" font-family="Times,serif" font-size="10.00">tc_no</text>
</g>
<!-- Hastalar&#45;&#45;H_tc -->
<g id="edge2" class="edge">
<title>Hastalar--H_tc</title>
<path fill="none" stroke="#90a4ae" d="M1240.73,-1018.18C1228.45,-981.07 1196.36,-884.03 1184.18,-847.19"/>
</g>
<!-- H_ad -->
<g id="node13" class="node">
<title>H_ad</title>
<ellipse fill="white" stroke="#424242" cx="958.29" cy="-819.21" rx="27" ry="14.4"/>
<text xml:space="preserve" text-anchor="middle" x="958.29" y="-816.21" font-family="Times,serif" font-size="10.00">ad</text>
</g>
<!-- Hastalar&#45;&#45;H_ad -->
<g id="edge3" class="edge">
<title>Hastalar--H_ad</title>
<path fill="none" stroke="#90a4ae" d="M1225.85,-1018.21C1171.97,-978.14 1023.18,-867.48 974.18,-831.03"/>
</g>
<!-- H_soyad -->
<g id="node14" class="node">
<title>H_soyad</title>
<ellipse fill="white" stroke="#424242" cx="1442.32" cy="-1091.53" rx="27.33" ry="14.4"/>
<text xml:space="preserve" text-anchor="middle" x="1442.32" y="-1088.53" font-family="Times,serif" font-size="10.00">soyad</text>
</g>
<!-- Hastalar&#45;&#45;H_soyad -->
<g id="edge4" class="edge">
<title>Hastalar--H_soyad</title>
<path fill="none" stroke="#90a4ae" d="M1277.2,-1042.32C1316.52,-1054.04 1382.78,-1073.79 1418.23,-1084.35"/>
</g>
<!-- H_tel -->
<g id="node15" class="node">
<title>H_tel</title>
<ellipse fill="white" stroke="#424242" cx="1688.28" cy="-1178.4" rx="30.41" ry="14.4"/>
<text xml:space="preserve" text-anchor="middle" x="1688.28" y="-1175.4" font-family="Times,serif" font-size="10.00">telefon</text>
</g>
<!-- Hastalar&#45;&#45;H_tel -->
<g id="edge5" class="edge">
<title>Hastalar--H_tel</title>
<path fill="none" stroke="#90a4ae" d="M1277.27,-1047.18C1311.85,-1062.47 1369.08,-1086.85 1419.79,-1104.16 1506.29,-1133.7 1611.41,-1160.09 1660.51,-1171.88"/>
</g>
<!-- H_dt -->
<g id="node16" class="node">
<title>H_dt</title>
<ellipse fill="white" stroke="#424242" cx="1454.79" cy="-1295.67" rx="48.56" ry="14.4"/>
<text xml:space="preserve" text-anchor="middle" x="1454.79" y="-1292.67" font-family="Times,serif" font-size="10.00">dogum_tarihi</text>
</g>
<!-- Hastalar&#45;&#45;H_dt -->
<g id="edge6" class="edge">
<title>Hastalar--H_dt</title>
<path fill="none" stroke="#90a4ae" d="M1257.44,-1047.78C1294.35,-1094.14 1406.96,-1235.58 1443.33,-1281.27"/>
</g>
<!-- H_cin -->
<g id="node17" class="node">
<title>H_cin</title>
<ellipse fill="white" stroke="#424242" cx="1406.53" cy="-868.31" rx="32.73" ry="14.4"/>
<text xml:space="preserve" text-anchor="middle" x="1406.53" y="-865.31" font-family="Times,serif" font-size="10.00">cinsiyet</text>
</g>
<!-- Hastalar&#45;&#45;H_cin -->
<g id="edge7" class="edge">
<title>Hastalar--H_cin</title>
<path fill="none" stroke="#90a4ae" d="M1260.16,-1018C1291.26,-986.19 1363.76,-912.06 1393.47,-881.67"/>
</g>
<!-- H_adr -->
<g id="node18" class="node">
<title>H_adr</title>
<ellipse fill="white" stroke="#424242" cx="1642.6" cy="-622.87" rx="27" ry="14.4"/>
<text xml:space="preserve" text-anchor="middle" x="1642.6" y="-619.87" font-family="Times,serif" font-size="10.00">adres</text>
</g>
<!-- Hastalar&#45;&#45;H_adr -->
<g id="edge8" class="edge">
<title>Hastalar--H_adr</title>
<path fill="none" stroke="#90a4ae" d="M1256.11,-1018.08C1276.95,-988.9 1325.25,-922.13 1368.83,-868.31 1452.37,-765.12 1580.89,-667.59 1626.14,-634.64"/>
</g>
<!-- H_kan -->
<g id="node19" class="node">
<title>H_kan</title>
<ellipse fill="white" stroke="#424242" cx="1061.62" cy="-1004.52" rx="40.84" ry="14.4"/>
<text xml:space="preserve" text-anchor="middle" x="1061.62" y="-1001.52" font-family="Times,serif" font-size="10.00">kan_grubu</text>
</g>
<!-- Hastalar&#45;&#45;H_kan -->
<g id="edge9" class="edge">
<title>Hastalar--H_kan</title>
<path fill="none" stroke="#90a4ae" d="M1213.97,-1028.02C1182.22,-1023.12 1133.3,-1015.58 1099.5,-1010.37"/>
</g>
<!-- Rel_Ziyaret -->
<g id="node61" class="node">
<title>Rel_Ziyaret</title>
<polygon fill="#b2dfdb" stroke="#00695c" stroke-width="1.5" points="1124.84,-1197.15 1076.27,-1168.35 1124.84,-1139.55 1173.42,-1168.35 1124.84,-1197.15"/>
<text xml:space="preserve" text-anchor="middle" x="1124.84" y="-1171.65" font-family="Times,serif" font-size="11.00">Randevu</text>
<text xml:space="preserve" text-anchor="middle" x="1124.84" y="-1158.45" font-family="Times,serif" font-size="11.00">Alır</text>
</g>
<!-- Hastalar&#45;&#45;Rel_Ziyaret -->
<g id="edge49" class="edge">
<title>Hastalar--Rel_Ziyaret</title>
<path fill="none" stroke="black" d="M1232.44,-1047.65C1210.44,-1072.33 1166.18,-1121.98 1141.84,-1149.28"/>
<text xml:space="preserve" text-anchor="middle" x="1184.52" y="-1101.68" font-family="Times,serif" font-size="14.00">1</text>
</g>
<!-- Rel_Alerji -->
<g id="node66" class="node">
<title>Rel_Alerji</title>
<polygon fill="#ffcdd2" stroke="#c62828" stroke-width="3" points="1676.06,-959.37 1632.87,-930.57 1676.06,-901.77 1719.26,-930.57 1676.06,-959.37"/>
<text xml:space="preserve" text-anchor="middle" x="1676.06" y="-933.87" font-family="Times,serif" font-size="11.00">Alerjisi</text>
<text xml:space="preserve" text-anchor="middle" x="1676.06" y="-920.67" font-family="Times,serif" font-size="11.00">Var</text>
</g>
<!-- Hastalar&#45;&#45;Rel_Alerji -->
<g id="edge59" class="edge">
<title>Hastalar--Rel_Alerji</title>
<path fill="none" stroke="black" d="M1277.25,-1025.37C1356.17,-1006.61 1561.17,-957.88 1642.29,-938.6"/>
<text xml:space="preserve" text-anchor="middle" x="1455.45" y="-986.38" font-family="Times,serif" font-size="14.00">1</text>
</g>
<!-- Rel_Kronik -->
<g id="node67" class="node">
<title>Rel_Kronik</title>
<polygon fill="#ffcdd2" stroke="#c62828" stroke-width="3" points="1073.53,-603.24 1020.1,-574.44 1073.53,-545.64 1126.95,-574.44 1073.53,-603.24"/>
<text xml:space="preserve" text-anchor="middle" x="1073.53" y="-577.74" font-family="Times,serif" font-size="11.00">Hastalığı</text>
<text xml:space="preserve" text-anchor="middle" x="1073.53" y="-564.54" font-family="Times,serif" font-size="11.00">Var</text>
</g>
<!-- Hastalar&#45;&#45;Rel_Kronik -->
<g id="edge61" class="edge">
<title>Hastalar--Rel_Kronik</title>
<path fill="none" stroke="black" d="M1237.33,-1018.23C1219.23,-985.66 1175.52,-904.54 1147.9,-832.72 1116.23,-750.41 1090.79,-648.86 1079.64,-601.34"/>
<text xml:space="preserve" text-anchor="middle" x="1138.17" y="-820.29" font-family="Times,serif" font-size="14.00">1</text>
</g>
<!-- Doktorlar -->
<g id="node2" class="node">
<title>Doktorlar</title>
<path fill="#bbdefb" stroke="#424242" d="M774.31,-1699.53C774.31,-1699.53 723.08,-1699.53 723.08,-1699.53 718.28,-1699.53 713.48,-1694.73 713.48,-1689.93 713.48,-1689.93 713.48,-1680.33 713.48,-1680.33 713.48,-1675.53 718.28,-1670.73 723.08,-1670.73 723.08,-1670.73 774.31,-1670.73 774.31,-1670.73 779.11,-1670.73 783.91,-1675.53 783.91,-1680.33 783.91,-1680.33 783.91,-1689.93 783.91,-1689.93 783.91,-1694.73 779.11,-1699.53 774.31,-1699.53"/>
<text xml:space="preserve" text-anchor="middle" x="748.69" y="-1680.93" font-family="Times,serif" font-size="14.00">Doktorlar</text>
</g>
<!-- D_id -->
<g id="node20" class="node">
<title>D_id</title>
<ellipse fill="white" stroke="#424242" cx="68.44" cy="-1903.34" rx="27" ry="14.4"/>
<text xml:space="preserve" text-anchor="start" x="64.55" y="-1901.34" font-family="Times,serif" text-decoration="underline" font-size="10.00">id</text>
</g>
<!-- Doktorlar&#45;&#45;D_id -->
<g id="edge10" class="edge">
<title>Doktorlar--D_id</title>
<path fill="none" stroke="#90a4ae" d="M713.08,-1696.56C591.29,-1735.62 193.38,-1863.26 92.07,-1895.76"/>
</g>
<!-- D_ad -->
<g id="node21" class="node">
<title>D_ad</title>
<ellipse fill="white" stroke="#424242" cx="490.45" cy="-1929.33" rx="27" ry="14.4"/>
<text xml:space="preserve" text-anchor="middle" x="490.45" y="-1926.33" font-family="Times,serif" font-size="10.00">ad</text>
</g>
<!-- Doktorlar&#45;&#45;D_ad -->
<g id="edge11" class="edge">
<title>Doktorlar--D_ad</title>
<path fill="none" stroke="#90a4ae" d="M733.31,-1699.68C686.73,-1743.73 547.71,-1875.19 503.86,-1916.66"/>
</g>
<!-- D_soyad -->
<g id="node22" class="node">
<title>D_soyad</title>
<ellipse fill="white" stroke="#424242" cx="495.69" cy="-1644" rx="27.33" ry="14.4"/>
<text xml:space="preserve" text-anchor="middle" x="495.69" y="-1641" font-family="Times,serif" font-size="10.00">soyad</text>
</g>
<!-- Doktorlar&#45;&#45;D_soyad -->
<g id="edge12" class="edge">
<title>Doktorlar--D_soyad</title>
<path fill="none" stroke="#90a4ae" d="M712.98,-1679.33C661.49,-1670.96 567.59,-1655.69 521.97,-1648.28"/>
</g>
<!-- D_tel -->
<g id="node23" class="node">
<title>D_tel</title>
<ellipse fill="white" stroke="#424242" cx="52.77" cy="-1589.64" rx="30.41" ry="14.4"/>
<text xml:space="preserve" text-anchor="middle" x="52.77" y="-1586.64" font-family="Times,serif" font-size="10.00">telefon</text>
</g>
<!-- Doktorlar&#45;&#45;D_tel -->
<g id="edge13" class="edge">
<title>Doktorlar--D_tel</title>
<path fill="none" stroke="#90a4ae" d="M712.99,-1682.64C663.92,-1679.03 572.92,-1671.7 495.69,-1661.86 338.6,-1641.86 151.75,-1608.09 81.42,-1595.02"/>
</g>
<!-- D_dip -->
<g id="node24" class="node">
<title>D_dip</title>
<ellipse fill="white" stroke="#424242" cx="847.45" cy="-2379.42" rx="44.32" ry="14.4"/>
<text xml:space="preserve" text-anchor="middle" x="847.45" y="-2376.42" font-family="Times,serif" font-size="10.00">diploma_no</text>
</g>
<!-- Doktorlar&#45;&#45;D_dip -->
<g id="edge14" class="edge">
<title>Doktorlar--D_dip</title>
<path fill="none" stroke="#90a4ae" d="M753.65,-1699.93C767.36,-1741.56 805.83,-1863.42 822.47,-1967.88 846.95,-2121.63 847.86,-2311.19 847.58,-2364.73"/>
</g>
<!-- D_uzm -->
<g id="node25" class="node">
<title>D_uzm</title>
<ellipse fill="white" stroke="#424242" cx="943" cy="-1773.15" rx="36.98" ry="14.4"/>
<text xml:space="preserve" text-anchor="middle" x="943" y="-1770.15" font-family="Times,serif" font-size="10.00">uzmanlik</text>
</g>
<!-- Doktorlar&#45;&#45;D_uzm -->
<g id="edge15" class="edge">
<title>Doktorlar--D_uzm</title>
<path fill="none" stroke="#90a4ae" d="M781.22,-1699.86C819.89,-1717.39 883.58,-1746.24 918.39,-1762.01"/>
</g>
<!-- Rel_Muayene -->
<g id="node62" class="node">
<title>Rel_Muayene</title>
<polygon fill="#b2dfdb" stroke="#00695c" stroke-width="1.5" points="978.3,-1628.18 928.11,-1599.38 978.3,-1570.58 1028.48,-1599.38 978.3,-1628.18"/>
<text xml:space="preserve" text-anchor="middle" x="978.3" y="-1602.68" font-family="Times,serif" font-size="11.00">Muayene</text>
<text xml:space="preserve" text-anchor="middle" x="978.3" y="-1589.48" font-family="Times,serif" font-size="11.00">Eder</text>
</g>
<!-- Doktorlar&#45;&#45;Rel_Muayene -->
<g id="edge51" class="edge">
<title>Doktorlar--Rel_Muayene</title>
<path fill="none" stroke="black" d="M784.32,-1671.83C828.91,-1655.17 904.57,-1626.92 947.02,-1611.06"/>
<text xml:space="preserve" text-anchor="middle" x="862.97" y="-1645.35" font-family="Times,serif" font-size="14.00">1</text>
</g>
<!-- Rel_Pass -->
<g id="node65" class="node">
<title>Rel_Pass</title>
<polygon fill="#b2dfdb" stroke="#00695c" stroke-width="1.5" points="775.82,-1999.88 733.7,-1971.08 775.82,-1942.28 817.94,-1971.08 775.82,-1999.88"/>
<text xml:space="preserve" text-anchor="middle" x="775.82" y="-1974.38" font-family="Times,serif" font-size="11.00">Giriş</text>
<text xml:space="preserve" text-anchor="middle" x="775.82" y="-1961.18" font-family="Times,serif" font-size="11.00">Yetkisi</text>
</g>
<!-- Doktorlar&#45;&#45;Rel_Pass -->
<g id="edge57" class="edge">
<title>Doktorlar--Rel_Pass</title>
<path fill="none" stroke="black" d="M750.08,-1699.7C754.37,-1745 767.54,-1883.86 773.2,-1943.45"/>
<text xml:space="preserve" text-anchor="middle" x="757.63" y="-1820.42" font-family="Times,serif" font-size="14.00">1</text>
</g>
<!-- Ziyaretler -->
<g id="node3" class="node">
<title>Ziyaretler</title>
<path fill="#bbdefb" stroke="#424242" d="M1033.02,-1334.94C1033.02,-1334.94 981.03,-1334.94 981.03,-1334.94 976.23,-1334.94 971.43,-1330.14 971.43,-1325.34 971.43,-1325.34 971.43,-1315.74 971.43,-1315.74 971.43,-1310.94 976.23,-1306.14 981.03,-1306.14 981.03,-1306.14 1033.02,-1306.14 1033.02,-1306.14 1037.82,-1306.14 1042.62,-1310.94 1042.62,-1315.74 1042.62,-1315.74 1042.62,-1325.34 1042.62,-1325.34 1042.62,-1330.14 1037.82,-1334.94 1033.02,-1334.94"/>
<text xml:space="preserve" text-anchor="middle" x="1007.02" y="-1316.34" font-family="Times,serif" font-size="14.00">Ziyaretler</text>
</g>
<!-- Z_id -->
<g id="node26" class="node">
<title>Z_id</title>
<ellipse fill="white" stroke="#424242" cx="1093.7" cy="-1475.14" rx="27" ry="14.4"/>
<text xml:space="preserve" text-anchor="start" x="1089.81" y="-1473.14" font-family="Times,serif" text-decoration="underline" font-size="10.00">id</text>
</g>
<!-- Ziyaretler&#45;&#45;Z_id -->
<g id="edge16" class="edge">
<title>Ziyaretler--Z_id</title>
<path fill="none" stroke="#90a4ae" d="M1015.33,-1335.36C1032.03,-1365.14 1069.44,-1431.86 1085.79,-1461.04"/>
</g>
<!-- Z_tar -->
<g id="node27" class="node">
<title>Z_tar</title>
<ellipse fill="white" stroke="#424242" cx="1281.19" cy="-1213.69" rx="34.66" ry="14.4"/>
<text xml:space="preserve" text-anchor="middle" x="1281.19" y="-1210.69" font-family="Times,serif" font-size="10.00">tarihsaat</text>
</g>
<!-- Ziyaretler&#45;&#45;Z_tar -->
<g id="edge17" class="edge">
<title>Ziyaretler--Z_tar</title>
<path fill="none" stroke="#90a4ae" d="M1042.86,-1306.57C1099.04,-1284.68 1206.46,-1242.81 1255.56,-1223.68"/>
</g>
<!-- Z_sik -->
<g id="node28" class="node">
<title>Z_sik</title>
<ellipse fill="white" stroke="#424242" cx="1146.19" cy="-1321.12" rx="30.8" ry="14.4"/>
<text xml:space="preserve" text-anchor="middle" x="1146.19" y="-1318.12" font-family="Times,serif" font-size="10.00">sikayet</text>
</g>
<!-- Ziyaretler&#45;&#45;Z_sik -->
<g id="edge18" class="edge">
<title>Ziyaretler--Z_sik</title>
<path fill="none" stroke="#90a4ae" d="M1042.86,-1320.69C1065.25,-1320.78 1093.79,-1320.9 1115.2,-1320.99"/>
</g>
<!-- Z_tan -->
<g id="node29" class="node">
<title>Z_tan</title>
<ellipse fill="white" stroke="#424242" cx="918.46" cy="-1464.75" rx="27" ry="14.4"/>
<text xml:space="preserve" text-anchor="middle" x="918.46" y="-1461.75" font-family="Times,serif" font-size="10.00">tani</text>
</g>
<!-- Ziyaretler&#45;&#45;Z_tan -->
<g id="edge19" class="edge">
<title>Ziyaretler--Z_tan</title>
<path fill="none" stroke="#90a4ae" d="M997.88,-1335.43C980.64,-1363.49 943.59,-1423.84 926.91,-1451"/>
</g>
<!-- Z_not -->
<g id="node30" class="node">
<title>Z_not</title>
<ellipse fill="white" stroke="#424242" cx="980.74" cy="-1163.94" rx="46.24" ry="14.4"/>
<text xml:space="preserve" text-anchor="middle" x="980.74" y="-1160.94" font-family="Times,serif" font-size="10.00">tedavinotlari</text>
</g>
<!-- Ziyaretler&#45;&#45;Z_not -->
<g id="edge20" class="edge">
<title>Ziyaretler--Z_not</title>
<path fill="none" stroke="#90a4ae" d="M1004.55,-1305.8C999.54,-1275.96 988.25,-1208.65 983.23,-1178.74"/>
</g>
<!-- Rel_ReceteYaz -->
<g id="node63" class="node">
<title>Rel_ReceteYaz</title>
<polygon fill="#b2dfdb" stroke="#00695c" stroke-width="1.5" points="1278.97,-1418.31 1233.63,-1389.51 1278.97,-1360.71 1324.31,-1389.51 1278.97,-1418.31"/>
<text xml:space="preserve" text-anchor="middle" x="1278.97" y="-1392.81" font-family="Times,serif" font-size="11.00">Reçete</text>
<text xml:space="preserve" text-anchor="middle" x="1278.97" y="-1379.61" font-family="Times,serif" font-size="11.00">Yazılır</text>
</g>
<!-- Ziyaretler&#45;&#45;Rel_ReceteYaz -->
<g id="edge53" class="edge">
<title>Ziyaretler--Rel_ReceteYaz</title>
<path fill="none" stroke="black" d="M1042.85,-1329.62C1095.79,-1343.05 1194.15,-1368 1245.62,-1381.05"/>
<text xml:space="preserve" text-anchor="middle" x="1141.29" y="-1359.68" font-family="Times,serif" font-size="14.00">1</text>
</g>
<!-- Rel_Bulgu -->
<g id="node64" class="node">
<title>Rel_Bulgu</title>
<polygon fill="#b2dfdb" stroke="#00695c" stroke-width="1.5" points="876.99,-1030.69 838.64,-1001.89 876.99,-973.09 915.33,-1001.89 876.99,-1030.69"/>
<text xml:space="preserve" text-anchor="middle" x="876.99" y="-1005.19" font-family="Times,serif" font-size="11.00">Tespit</text>
<text xml:space="preserve" text-anchor="middle" x="876.99" y="-991.99" font-family="Times,serif" font-size="11.00">Edilir</text>
</g>
<!-- Ziyaretler&#45;&#45;Rel_Bulgu -->
<g id="edge55" class="edge">
<title>Ziyaretler--Rel_Bulgu</title>
<path fill="none" stroke="black" d="M998.63,-1305.79C983.29,-1278.44 950.32,-1217.76 928.43,-1163.94 909.08,-1116.36 892.27,-1058.6 883.48,-1026.48"/>
<text xml:space="preserve" text-anchor="middle" x="924.92" y="-1168.12" font-family="Times,serif" font-size="14.00">1</text>
</g>
<!-- Rel_Istenir -->
<g id="node73" class="node">
<title>Rel_Istenir</title>
<polygon fill="#fff9c4" stroke="#fbc02d" stroke-width="1.5" points="851.8,-1351.41 818.42,-1322.61 851.8,-1293.81 885.18,-1322.61 851.8,-1351.41"/>
<text xml:space="preserve" text-anchor="middle" x="851.8" y="-1325.31" font-family="Times,serif" font-size="9.00">Tetkik</text>
<text xml:space="preserve" text-anchor="middle" x="851.8" y="-1314.51" font-family="Times,serif" font-size="9.00">İstenir</text>
</g>
<!-- Ziyaretler&#45;&#45;Rel_Istenir -->
<g id="edge69" class="edge">
<title>Ziyaretler--Rel_Istenir</title>
<path fill="none" stroke="black" stroke-width="2" d="M971.02,-1321.02C945.32,-1321.36 910.97,-1321.82 885.75,-1322.15"/>
<text xml:space="preserve" text-anchor="middle" x="921.98" y="-1325.79" font-family="Times,serif" font-size="14.00">M</text>
</g>
<!-- Receteler -->
<g id="node4" class="node">
<title>Receteler</title>
<path fill="#bbdefb" stroke="#424242" d="M1262.95,-1569.35C1262.95,-1569.35 1213.3,-1569.35 1213.3,-1569.35 1208.5,-1569.35 1203.7,-1564.55 1203.7,-1559.75 1203.7,-1559.75 1203.7,-1550.15 1203.7,-1550.15 1203.7,-1545.35 1208.5,-1540.55 1213.3,-1540.55 1213.3,-1540.55 1262.95,-1540.55 1262.95,-1540.55 1267.75,-1540.55 1272.55,-1545.35 1272.55,-1550.15 1272.55,-1550.15 1272.55,-1559.75 1272.55,-1559.75 1272.55,-1564.55 1267.75,-1569.35 1262.95,-1569.35"/>
<text xml:space="preserve" text-anchor="middle" x="1238.12" y="-1550.75" font-family="Times,serif" font-size="14.00">Receteler</text>
</g>
<!-- R_id -->
<g id="node31" class="node">
<title>R_id</title>
<ellipse fill="white" stroke="#424242" cx="1691.55" cy="-1410.36" rx="27" ry="14.4"/>
<text xml:space="preserve" text-anchor="start" x="1687.67" y="-1408.36" font-family="Times,serif" text-decoration="underline" font-size="10.00">id</text>
</g>
<!-- Receteler&#45;&#45;R_id -->
<g id="edge21" class="edge">
<title>Receteler--R_id</title>
<path fill="none" stroke="#90a4ae" d="M1267.76,-1540.07C1299.87,-1524.37 1352.91,-1499.69 1400.58,-1483.34 1496.4,-1450.47 1614.58,-1425.42 1665.83,-1415.28"/>
</g>
<!-- R_tar -->
<g id="node32" class="node">
<title>R_tar</title>
<ellipse fill="white" stroke="#424242" cx="1147.81" cy="-1723.17" rx="27" ry="14.4"/>
<text xml:space="preserve" text-anchor="middle" x="1147.81" y="-1720.17" font-family="Times,serif" font-size="10.00">tarih</text>
</g>
<!-- Receteler&#45;&#45;R_tar -->
<g id="edge22" class="edge">
<title>Receteler--R_tar</title>
<path fill="none" stroke="#90a4ae" d="M1230.27,-1569.59C1213.1,-1601.56 1172.43,-1677.32 1155.46,-1708.93"/>
</g>
<!-- R_sur -->
<g id="node33" class="node">
<title>R_sur</title>
<ellipse fill="white" stroke="#424242" cx="1443.19" cy="-1495.97" rx="53.57" ry="14.4"/>
<text xml:space="preserve" text-anchor="middle" x="1443.19" y="-1492.97" font-family="Times,serif" font-size="10.00">gecerliliksuresi</text>
</g>
<!-- Receteler&#45;&#45;R_sur -->
<g id="edge23" class="edge">
<title>Receteler--R_sur</title>
<path fill="none" stroke="#90a4ae" d="M1272.91,-1544.95C1309.82,-1534.33 1367.93,-1517.62 1405.8,-1506.72"/>
</g>
<!-- Rel_Icerir -->
<g id="node68" class="node">
<title>Rel_Icerir</title>
<polygon fill="#fff9c4" stroke="#fbc02d" stroke-width="1.5" points="1392.2,-1732.68 1354.94,-1703.88 1392.2,-1675.08 1429.46,-1703.88 1392.2,-1732.68"/>
<text xml:space="preserve" text-anchor="middle" x="1392.2" y="-1707.18" font-family="Times,serif" font-size="11.00">İlaç</text>
<text xml:space="preserve" text-anchor="middle" x="1392.2" y="-1693.98" font-family="Times,serif" font-size="11.00">İçerir</text>
</g>
<!-- Receteler&#45;&#45;Rel_Icerir -->
<g id="edge63" class="edge">
<title>Receteler--Rel_Icerir</title>
<path fill="none" stroke="black" stroke-width="2" d="M1253.46,-1569.78C1282.54,-1597.88 1345.46,-1658.7 1375.53,-1687.77"/>
<text xml:space="preserve" text-anchor="middle" x="1307.9" y="-1632.61" font-family="Times,serif" font-size="14.00">M</text>
</g>
<!-- Ilaclar -->
<g id="node5" class="node">
<title>Ilaclar</title>
<path fill="#bbdefb" stroke="#424242" d="M1631.06,-1965.32C1631.06,-1965.32 1596.26,-1965.32 1596.26,-1965.32 1591.46,-1965.32 1586.66,-1960.52 1586.66,-1955.72 1586.66,-1955.72 1586.66,-1946.12 1586.66,-1946.12 1586.66,-1941.32 1591.46,-1936.52 1596.26,-1936.52 1596.26,-1936.52 1631.06,-1936.52 1631.06,-1936.52 1635.86,-1936.52 1640.66,-1941.32 1640.66,-1946.12 1640.66,-1946.12 1640.66,-1955.72 1640.66,-1955.72 1640.66,-1960.52 1635.86,-1965.32 1631.06,-1965.32"/>
<text xml:space="preserve" text-anchor="middle" x="1613.66" y="-1946.72" font-family="Times,serif" font-size="14.00">Ilaclar</text>
</g>
<!-- I_id -->
<g id="node34" class="node">
<title>I_id</title>
<ellipse fill="white" stroke="#424242" cx="1340.47" cy="-2216.12" rx="27" ry="14.4"/>
<text xml:space="preserve" text-anchor="start" x="1336.58" y="-2214.12" font-family="Times,serif" text-decoration="underline" font-size="10.00">id</text>
</g>
<!-- Ilaclar&#45;&#45;I_id -->
<g id="edge24" class="edge">
<title>Ilaclar--I_id</title>
<path fill="none" stroke="#90a4ae" d="M1598.59,-1965.56C1550.26,-2012.47 1399.72,-2158.59 1353.86,-2203.11"/>
</g>
<!-- I_bar -->
<g id="node35" class="node">
<title>I_bar</title>
<ellipse fill="white" stroke="#424242" cx="1141.12" cy="-2468.01" rx="30.41" ry="14.4"/>
<text xml:space="preserve" text-anchor="middle" x="1141.12" y="-2465.01" font-family="Times,serif" font-size="10.00">barkod</text>
</g>
<!-- Ilaclar&#45;&#45;I_bar -->
<g id="edge25" class="edge">
<title>Ilaclar--I_bar</title>
<path fill="none" stroke="#90a4ae" d="M1600.4,-1965.74C1563.13,-2007.35 1454.2,-2128.75 1362.74,-2228.75 1283.63,-2315.23 1187.55,-2418.29 1153.67,-2454.57"/>
</g>
<!-- I_ad -->
<g id="node36" class="node">
<title>I_ad</title>
<ellipse fill="white" stroke="#424242" cx="2056.94" cy="-1880.98" rx="27" ry="14.4"/>
<text xml:space="preserve" text-anchor="middle" x="2056.94" y="-1877.98" font-family="Times,serif" font-size="10.00">ad</text>
</g>
<!-- Ilaclar&#45;&#45;I_ad -->
<g id="edge26" class="edge">
<title>Ilaclar--I_ad</title>
<path fill="none" stroke="#90a4ae" d="M1641.06,-1946.6C1720.81,-1934.02 1952.13,-1897.52 2030.57,-1885.14"/>
</g>
<!-- I_etk -->
<g id="node37" class="node">
<title>I_etk</title>
<ellipse fill="white" stroke="#424242" cx="2090.54" cy="-1564" rx="44.69" ry="14.4"/>
<text xml:space="preserve" text-anchor="middle" x="2090.54" y="-1561" font-family="Times,serif" font-size="10.00">etkenmadde</text>
</g>
<!-- Ilaclar&#45;&#45;I_etk -->
<g id="edge27" class="edge">
<title>Ilaclar--I_etk</title>
<path fill="none" stroke="#90a4ae" d="M1631.77,-1936.23C1707.82,-1874.52 2000.76,-1636.84 2073.91,-1577.49"/>
</g>
<!-- I_frm -->
<g id="node38" class="node">
<title>I_frm</title>
<ellipse fill="white" stroke="#424242" cx="1609.16" cy="-2428.02" rx="27" ry="14.4"/>
<text xml:space="preserve" text-anchor="middle" x="1609.16" y="-2425.02" font-family="Times,serif" font-size="10.00">form</text>
</g>
<!-- Ilaclar&#45;&#45;I_frm -->
<g id="edge28" class="edge">
<title>Ilaclar--I_frm</title>
<path fill="none" stroke="#90a4ae" d="M1613.52,-1965.72C1612.85,-2036.81 1609.96,-2342.68 1609.3,-2413.39"/>
</g>
<!-- I_doz -->
<g id="node39" class="node">
<title>I_doz</title>
<ellipse fill="white" stroke="#424242" cx="2069.96" cy="-2360.19" rx="43.54" ry="14.4"/>
<text xml:space="preserve" text-anchor="middle" x="2069.96" y="-2357.19" font-family="Times,serif" font-size="10.00">dozajbilgisi</text>
</g>
<!-- Ilaclar&#45;&#45;I_doz -->
<g id="edge29" class="edge">
<title>Ilaclar--I_doz</title>
<path fill="none" stroke="#90a4ae" d="M1630.17,-1965.73C1701.75,-2029.93 1984.78,-2283.79 2054.41,-2346.25"/>
</g>
<!-- Tetkikler -->
<g id="node6" class="node">
<title>Tetkikler</title>
<path fill="#bbdefb" stroke="#424242" d="M462.38,-1196.23C462.38,-1196.23 414.27,-1196.23 414.27,-1196.23 409.47,-1196.23 404.67,-1191.43 404.67,-1186.63 404.67,-1186.63 404.67,-1177.03 404.67,-1177.03 404.67,-1172.23 409.47,-1167.43 414.27,-1167.43 414.27,-1167.43 462.38,-1167.43 462.38,-1167.43 467.18,-1167.43 471.98,-1172.23 471.98,-1177.03 471.98,-1177.03 471.98,-1186.63 471.98,-1186.63 471.98,-1191.43 467.18,-1196.23 462.38,-1196.23"/>
<text xml:space="preserve" text-anchor="middle" x="438.33" y="-1177.63" font-family="Times,serif" font-size="14.00">Tetkikler</text>
</g>
<!-- T_id -->
<g id="node40" class="node">
<title>T_id</title>
<ellipse fill="white" stroke="#424242" cx="56.95" cy="-687.99" rx="27" ry="14.4"/>
<text xml:space="preserve" text-anchor="start" x="53.06" y="-685.99" font-family="Times,serif" text-decoration="underline" font-size="10.00">id</text>
</g>
<!-- Tetkikler&#45;&#45;T_id -->
<g id="edge30" class="edge">
<title>Tetkikler--T_id</title>
<path fill="none" stroke="#90a4ae" d="M426.91,-1167.05C370.4,-1093.87 121.09,-771.04 67.23,-701.3"/>
</g>
<!-- T_ad -->
<g id="node41" class="node">
<title>T_ad</title>
<ellipse fill="white" stroke="#424242" cx="446.93" cy="-921.51" rx="27" ry="14.4"/>
<text xml:space="preserve" text-anchor="middle" x="446.93" y="-918.51" font-family="Times,serif" font-size="10.00">ad</text>
</g>
<!-- Tetkikler&#45;&#45;T_ad -->
<g id="edge31" class="edge">
<title>Tetkikler--T_ad</title>
<path fill="none" stroke="#90a4ae" d="M438.82,-1167.09C440.33,-1121.27 444.94,-981.69 446.45,-936.09"/>
</g>
<!-- T_acik -->
<g id="node42" class="node">
<title>T_acik</title>
<ellipse fill="white" stroke="#424242" cx="393.87" cy="-1427.82" rx="36.2" ry="14.4"/>
<text xml:space="preserve" text-anchor="middle" x="393.87" y="-1424.82" font-family="Times,serif" font-size="10.00">aciklama</text>
</g>
<!-- Tetkikler&#45;&#45;T_acik -->
<g id="edge32" class="edge">
<title>Tetkikler--T_acik</title>
<path fill="none" stroke="#90a4ae" d="M435.68,-1196.48C427.77,-1240.24 404.39,-1369.6 396.5,-1413.25"/>
</g>
<!-- T_ndE -->
<g id="node43" class="node">
<title>T_ndE</title>
<ellipse fill="white" stroke="#424242" cx="33.5" cy="-1304.12" rx="33.5" ry="14.4"/>
<text xml:space="preserve" text-anchor="middle" x="33.5" y="-1301.12" font-family="Times,serif" font-size="10.00">nderkek</text>
</g>
<!-- Tetkikler&#45;&#45;T_ndE -->
<g id="edge33" class="edge">
<title>Tetkikler--T_ndE</title>
<path fill="none" stroke="#90a4ae" d="M404.51,-1192.05C326.22,-1215.7 133.69,-1273.86 61.47,-1295.67"/>
</g>
<!-- T_ndK -->
<g id="node44" class="node">
<title>T_ndK</title>
<ellipse fill="white" stroke="#424242" cx="55.23" cy="-1023.34" rx="33.5" ry="14.4"/>
<text xml:space="preserve" text-anchor="middle" x="55.23" y="-1020.34" font-family="Times,serif" font-size="10.00">ndkadin</text>
</g>
<!-- Tetkikler&#45;&#45;T_ndK -->
<g id="edge34" class="edge">
<title>Tetkikler--T_ndK</title>
<path fill="none" stroke="#90a4ae" d="M404.33,-1167.77C328.33,-1136.33 146.18,-1060.97 79.89,-1033.54"/>
</g>
<!-- Bulgular -->
<g id="node7" class="node">
<title>Bulgular</title>
<path fill="#bbdefb" stroke="#424242" d="M743.02,-859.41C743.02,-859.41 697.22,-859.41 697.22,-859.41 692.42,-859.41 687.62,-854.61 687.62,-849.81 687.62,-849.81 687.62,-840.21 687.62,-840.21 687.62,-835.41 692.42,-830.61 697.22,-830.61 697.22,-830.61 743.02,-830.61 743.02,-830.61 747.82,-830.61 752.62,-835.41 752.62,-840.21 752.62,-840.21 752.62,-849.81 752.62,-849.81 752.62,-854.61 747.82,-859.41 743.02,-859.41"/>
<text xml:space="preserve" text-anchor="middle" x="720.12" y="-840.81" font-family="Times,serif" font-size="14.00">Bulgular</text>
</g>
<!-- B_id -->
<g id="node45" class="node">
<title>B_id</title>
<ellipse fill="white" stroke="#424242" cx="803.79" cy="-577.42" rx="27" ry="14.4"/>
<text xml:space="preserve" text-anchor="start" x="799.9" y="-575.42" font-family="Times,serif" text-decoration="underline" font-size="10.00">id</text>
</g>
<!-- Bulgular&#45;&#45;B_id -->
<g id="edge35" class="edge">
<title>Bulgular--B_id</title>
<path fill="none" stroke="#90a4ae" d="M724.74,-830.24C739.4,-783.35 784.79,-638.19 799.29,-591.82"/>
</g>
<!-- B_acik -->
<g id="node46" class="node">
<title>B_acik</title>
<ellipse fill="white" stroke="#424242" cx="573.61" cy="-158.46" rx="36.2" ry="14.4"/>
<text xml:space="preserve" text-anchor="middle" x="573.61" y="-155.46" font-family="Times,serif" font-size="10.00">aciklama</text>
</g>
<!-- Bulgular&#45;&#45;B_acik -->
<g id="edge36" class="edge">
<title>Bulgular--B_acik</title>
<path fill="none" stroke="#90a4ae" d="M716.99,-830.35C697.79,-740.37 596.07,-263.69 576.77,-173.27"/>
</g>
<!-- B_tip -->
<g id="node47" class="node">
<title>B_tip</title>
<ellipse fill="white" stroke="#424242" cx="491.39" cy="-611.34" rx="27" ry="14.4"/>
<text xml:space="preserve" text-anchor="middle" x="491.39" y="-608.34" font-family="Times,serif" font-size="10.00">tip</text>
</g>
<!-- Bulgular&#45;&#45;B_tip -->
<g id="edge37" class="edge">
<title>Bulgular--B_tip</title>
<path fill="none" stroke="#90a4ae" d="M705.81,-830.39C664.24,-787.93 543.94,-665.03 504.26,-624.49"/>
</g>
<!-- B_zam -->
<g id="node48" class="node">
<title>B_zam</title>
<ellipse fill="white" stroke="#424242" cx="91.65" cy="-191.37" rx="63.6" ry="14.4"/>
<text xml:space="preserve" text-anchor="middle" x="91.65" y="-188.37" font-family="Times,serif" font-size="10.00">kaydedilmezamani</text>
</g>
<!-- Bulgular&#45;&#45;B_zam -->
<g id="edge38" class="edge">
<title>Bulgular--B_zam</title>
<path fill="none" stroke="#90a4ae" d="M708.54,-830.11C677.96,-791.03 592.04,-682.78 513.66,-598.71 362.98,-437.09 164.53,-256.78 107.56,-205.59"/>
</g>
<!-- Duyurular -->
<g id="node8" class="node">
<title>Duyurular</title>
<path fill="#bbdefb" stroke="#424242" d="M2541.09,-124.35C2541.09,-124.35 2486.75,-124.35 2486.75,-124.35 2481.95,-124.35 2477.15,-119.55 2477.15,-114.75 2477.15,-114.75 2477.15,-105.15 2477.15,-105.15 2477.15,-100.35 2481.95,-95.55 2486.75,-95.55 2486.75,-95.55 2541.09,-95.55 2541.09,-95.55 2545.89,-95.55 2550.69,-100.35 2550.69,-105.15 2550.69,-105.15 2550.69,-114.75 2550.69,-114.75 2550.69,-119.55 2545.89,-124.35 2541.09,-124.35"/>
<text xml:space="preserve" text-anchor="middle" x="2513.92" y="-105.75" font-family="Times,serif" font-size="14.00">Duyurular</text>
</g>
<!-- Du_id -->
<g id="node49" class="node">
<title>Du_id</title>
<ellipse fill="white" stroke="#424242" cx="2620.9" cy="-17.71" rx="27" ry="14.4"/>
<text xml:space="preserve" text-anchor="start" x="2617.01" y="-15.71" font-family="Times,serif" text-decoration="underline" font-size="10.00">id</text>
</g>
<!-- Duyurular&#45;&#45;Du_id -->
<g id="edge39" class="edge">
<title>Duyurular--Du_id</title>
<path fill="none" stroke="#90a4ae" d="M2531.11,-95.13C2552.02,-77.11 2586.94,-47 2606.5,-30.13"/>
</g>
<!-- Du_bas -->
<g id="node50" class="node">
<title>Du_bas</title>
<ellipse fill="white" stroke="#424242" cx="2410.37" cy="-14.4" rx="27.72" ry="14.4"/>
<text xml:space="preserve" text-anchor="middle" x="2410.37" y="-11.4" font-family="Times,serif" font-size="10.00">baslik</text>
</g>
<!-- Duyurular&#45;&#45;Du_bas -->
<g id="edge40" class="edge">
<title>Duyurular--Du_bas</title>
<path fill="none" stroke="#90a4ae" d="M2498.2,-95.44C2478.05,-76.86 2443.46,-44.94 2424.25,-27.21"/>
</g>
<!-- Du_met -->
<g id="node51" class="node">
<title>Du_met</title>
<ellipse fill="white" stroke="#424242" cx="2407" cy="-201.99" rx="27" ry="14.4"/>
<text xml:space="preserve" text-anchor="middle" x="2407" y="-198.99" font-family="Times,serif" font-size="10.00">metin</text>
</g>
<!-- Duyurular&#45;&#45;Du_met -->
<g id="edge41" class="edge">
<title>Duyurular--Du_met</title>
<path fill="none" stroke="#90a4ae" d="M2496.74,-124.74C2475.85,-142.73 2440.95,-172.77 2421.39,-189.6"/>
</g>
<!-- Du_tar -->
<g id="node52" class="node">
<title>Du_tar</title>
<ellipse fill="white" stroke="#424242" cx="2617.63" cy="-205.26" rx="27" ry="14.4"/>
<text xml:space="preserve" text-anchor="middle" x="2617.63" y="-202.26" font-family="Times,serif" font-size="10.00">tarih</text>
</g>
<!-- Duyurular&#45;&#45;Du_tar -->
<g id="edge42" class="edge">
<title>Duyurular--Du_tar</title>
<path fill="none" stroke="#90a4ae" d="M2530.13,-124.85C2550.41,-143.48 2584.79,-175.08 2603.85,-192.61"/>
</g>
<!-- Alerjiler -->
<g id="node9" class="node">
<title>Alerjiler</title>
<path fill="#ffebee" stroke="#424242" stroke-width="3" d="M2099.27,-703.89C2099.27,-703.89 2055.05,-703.89 2055.05,-703.89 2050.25,-703.89 2045.45,-699.09 2045.45,-694.29 2045.45,-694.29 2045.45,-684.69 2045.45,-684.69 2045.45,-679.89 2050.25,-675.09 2055.05,-675.09 2055.05,-675.09 2099.27,-675.09 2099.27,-675.09 2104.07,-675.09 2108.87,-679.89 2108.87,-684.69 2108.87,-684.69 2108.87,-694.29 2108.87,-694.29 2108.87,-699.09 2104.07,-703.89 2099.27,-703.89"/>
<text xml:space="preserve" text-anchor="middle" x="2077.16" y="-685.29" font-family="Times,serif" font-size="14.00">Alerjiler</text>
</g>
<!-- Al_id -->
<g id="node53" class="node">
<title>Al_id</title>
<ellipse fill="white" stroke="#424242" cx="2047.61" cy="-193.13" rx="27" ry="14.4"/>
<text xml:space="preserve" text-anchor="start" x="2043.73" y="-191.13" font-family="Times,serif" text-decoration="underline" font-size="10.00">id</text>
</g>
<!-- Alerjiler&#45;&#45;Al_id -->
<g id="edge43" class="edge">
<title>Alerjiler--Al_id</title>
<path fill="none" stroke="black" d="M2076.23,-673.82C2071.78,-599.17 2052.8,-280.33 2048.49,-207.84"/>
</g>
<!-- Al_ad -->
<g id="node54" class="node">
<title>Al_ad</title>
<ellipse fill="white" stroke="#424242" cx="2083.7" cy="-1021.48" rx="37.36" ry="14.4"/>
<text xml:space="preserve" text-anchor="middle" x="2083.7" y="-1018.48" font-family="Times,serif" font-size="10.00">alerji_adi</text>
</g>
<!-- Alerjiler&#45;&#45;Al_ad -->
<g id="edge44" class="edge">
<title>Alerjiler--Al_ad</title>
<path fill="none" stroke="black" d="M2077.47,-705.06C2078.57,-761.08 2082.33,-951.98 2083.41,-1006.71"/>
</g>
<!-- Kronik_Hastaliklar -->
<g id="node10" class="node">
<title>Kronik_Hastaliklar</title>
<path fill="#ffebee" stroke="#424242" stroke-width="3" d="M1279.71,-171.57C1279.71,-171.57 1174.82,-171.57 1174.82,-171.57 1170.02,-171.57 1165.22,-166.77 1165.22,-161.97 1165.22,-161.97 1165.22,-152.37 1165.22,-152.37 1165.22,-147.57 1170.02,-142.77 1174.82,-142.77 1174.82,-142.77 1279.71,-142.77 1279.71,-142.77 1284.51,-142.77 1289.31,-147.57 1289.31,-152.37 1289.31,-152.37 1289.31,-161.97 1289.31,-161.97 1289.31,-166.77 1284.51,-171.57 1279.71,-171.57"/>
<text xml:space="preserve" text-anchor="middle" x="1227.26" y="-152.97" font-family="Times,serif" font-size="14.00">Kronik_Hastaliklar</text>
</g>
<!-- Kr_id -->
<g id="node55" class="node">
<title>Kr_id</title>
<ellipse fill="white" stroke="#424242" cx="1569.12" cy="-163.63" rx="27" ry="14.4"/>
<text xml:space="preserve" text-anchor="start" x="1565.23" y="-161.63" font-family="Times,serif" text-decoration="underline" font-size="10.00">id</text>
</g>
<!-- Kronik_Hastaliklar&#45;&#45;Kr_id -->
<g id="edge45" class="edge">
<title>Kronik_Hastaliklar--Kr_id</title>
<path fill="none" stroke="black" d="M1290.76,-158.37C1365.88,-159.79 1487.53,-162.09 1541.65,-163.11"/>
</g>
<!-- Kr_ad -->
<g id="node56" class="node">
<title>Kr_ad</title>
<ellipse fill="white" stroke="#424242" cx="920.02" cy="-154.4" rx="44.7" ry="14.4"/>
<text xml:space="preserve" text-anchor="middle" x="920.02" y="-151.4" font-family="Times,serif" font-size="10.00">hastalik_adi</text>
</g>
<!-- Kronik_Hastaliklar&#45;&#45;Kr_ad -->
<g id="edge46" class="edge">
<title>Kronik_Hastaliklar--Kr_ad</title>
<path fill="none" stroke="black" d="M1163.98,-156.6C1104.6,-156.06 1017.3,-155.28 964.82,-154.8"/>
</g>
<!-- DoktorPass -->
<g id="node57" class="node">
<title>DoktorPass</title>
<polygon fill="#eceff1" stroke="#424242" points="574.71,-2409.34 512.6,-2409.34 512.6,-2380.54 574.71,-2380.54 574.71,-2409.34"/>
<text xml:space="preserve" text-anchor="middle" x="543.65" y="-2391.94" font-family="Times,serif" font-size="10.00">DoktorPass</text>
</g>
<!-- DP_sif -->
<g id="node59" class="node">
<title>DP_sif</title>
<polygon fill="#eceff1" stroke="#424242" points="112.56,-2393.01 58.56,-2393.01 58.56,-2364.21 112.56,-2364.21 112.56,-2393.01"/>
<text xml:space="preserve" text-anchor="middle" x="85.56" y="-2375.61" font-family="Times,serif" font-size="10.00">sifre</text>
</g>
<!-- DoktorPass&#45;&#45;DP_sif -->
<g id="edge47" class="edge">
<title>DoktorPass--DP_sif</title>
<path fill="none" stroke="black" d="M512.17,-2393.81C426.96,-2390.78 192.92,-2382.44 112.85,-2379.58"/>
</g>
<!-- YoneticiPass -->
<g id="node58" class="node">
<title>YoneticiPass</title>
<polygon fill="#eceff1" stroke="#424242" points="1608.22,-448.95 1540,-448.95 1540,-420.15 1608.22,-420.15 1608.22,-448.95"/>
<text xml:space="preserve" text-anchor="middle" x="1574.11" y="-431.55" font-family="Times,serif" font-size="10.00">YoneticiPass</text>
</g>
<!-- YP_sif -->
<g id="node60" class="node">
<title>YP_sif</title>
<polygon fill="#eceff1" stroke="#424242" points="1735.75,-448.8 1681.75,-448.8 1681.75,-420 1735.75,-420 1735.75,-448.8"/>
<text xml:space="preserve" text-anchor="middle" x="1708.75" y="-431.4" font-family="Times,serif" font-size="10.00">sifre</text>
</g>
<!-- YoneticiPass&#45;&#45;YP_sif -->
<g id="edge48" class="edge">
<title>YoneticiPass--YP_sif</title>
<path fill="none" stroke="black" d="M1608.43,-434.51C1631.03,-434.49 1660.21,-434.45 1681.27,-434.43"/>
</g>
<!-- Rel_Ziyaret&#45;&#45;Ziyaretler -->
<g id="edge50" class="edge">
<title>Rel_Ziyaret--Ziyaretler</title>
<path fill="none" stroke="black" d="M1109.2,-1188.56C1085.16,-1219.6 1039.71,-1278.32 1018.48,-1305.74"/>
<text xml:space="preserve" text-anchor="middle" x="1057.73" y="-1252.71" font-family="Times,serif" font-size="14.00">N</text>
</g>
<!-- Rel_Muayene&#45;&#45;Ziyaretler -->
<g id="edge52" class="edge">
<title>Rel_Muayene--Ziyaretler</title>
<path fill="none" stroke="black" d="M981.16,-1571.63C987.16,-1513.36 1000.9,-1379.98 1005.49,-1335.38"/>
<text xml:space="preserve" text-anchor="middle" x="988.8" y="-1452.58" font-family="Times,serif" font-size="14.00">N</text>
</g>
<!-- Rel_ReceteYaz&#45;&#45;Receteler -->
<g id="edge54" class="edge">
<title>Rel_ReceteYaz--Receteler</title>
<path fill="none" stroke="black" d="M1272.68,-1415C1264.04,-1449.98 1248.79,-1511.76 1241.8,-1540.05"/>
<text xml:space="preserve" text-anchor="middle" x="1251.57" y="-1484.24" font-family="Times,serif" font-size="14.00">N</text>
</g>
<!-- Rel_Bulgu&#45;&#45;Bulgular -->
<g id="edge56" class="edge">
<title>Rel_Bulgu--Bulgular</title>
<path fill="none" stroke="black" d="M860.2,-985.1C829.37,-954.27 764.23,-889.13 734.94,-859.83"/>
<text xml:space="preserve" text-anchor="middle" x="791.94" y="-926.09" font-family="Times,serif" font-size="14.00">N</text>
</g>
<!-- Rel_Pass&#45;&#45;DoktorPass -->
<g id="edge58" class="edge">
<title>Rel_Pass--DoktorPass</title>
<path fill="none" stroke="black" d="M763.99,-1992.68C722.77,-2067.92 586.17,-2317.31 551.64,-2380.36"/>
<text xml:space="preserve" text-anchor="middle" x="651.81" y="-2195.29" font-family="Times,serif" font-size="14.00">1</text>
</g>
<!-- Rel_Alerji&#45;&#45;Alerjiler -->
<g id="edge60" class="edge">
<title>Rel_Alerji--Alerjiler</title>
<path fill="none" stroke="black" d="M1699.95,-916.21C1770.45,-873.84 1977.25,-749.54 2050.81,-705.33"/>
<text xml:space="preserve" text-anchor="middle" x="1869.18" y="-815.66" font-family="Times,serif" font-size="14.00">N</text>
</g>
<!-- Rel_Kronik&#45;&#45;Kronik_Hastaliklar -->
<g id="edge62" class="edge">
<title>Rel_Kronik--Kronik_Hastaliklar</title>
<path fill="none" stroke="black" d="M1082.8,-549.28C1111.49,-471.4 1198.31,-235.76 1221.51,-172.79"/>
<text xml:space="preserve" text-anchor="middle" x="1149.16" y="-359.64" font-family="Times,serif" font-size="14.00">N</text>
</g>
<!-- Rel_Icerir&#45;&#45;Ilaclar -->
<g id="edge64" class="edge">
<title>Rel_Icerir--Ilaclar</title>
<path fill="none" stroke="black" stroke-width="2" d="M1407.77,-1721.25C1449.22,-1767.49 1561.71,-1892.97 1600.39,-1936.12"/>
<text xml:space="preserve" text-anchor="middle" x="1500.07" y="-1834.04" font-family="Times,serif" font-size="14.00">N</text>
</g>
<!-- RK_doz -->
<g id="node69" class="node">
<title>RK_doz</title>
<ellipse fill="none" stroke="#fbc02d" stroke-dasharray="5,2" cx="1300.24" cy="-1926.13" rx="27" ry="28.8"/>
<text xml:space="preserve" text-anchor="middle" x="1300.24" y="-1923.43" font-family="Times,serif" font-size="9.00">doz</text>
</g>
<!-- Rel_Icerir&#45;&#45;RK_doz -->
<g id="edge65" class="edge">
<title>Rel_Icerir--RK_doz</title>
<path fill="none" stroke="black" stroke-dasharray="5,2" d="M1382.88,-1726.41C1365.8,-1767.69 1329.57,-1855.23 1311.29,-1899.42"/>
</g>
<!-- RK_periyot -->
<g id="node70" class="node">
<title>RK_periyot</title>
<ellipse fill="none" stroke="#fbc02d" stroke-dasharray="5,2" cx="1052.95" cy="-2006.29" rx="27" ry="28.8"/>
<text xml:space="preserve" text-anchor="middle" x="1052.95" y="-2003.59" font-family="Times,serif" font-size="9.00">periyot</text>
</g>
<!-- Rel_Icerir&#45;&#45;RK_periyot -->
<g id="edge66" class="edge">
<title>Rel_Icerir--RK_periyot</title>
<path fill="none" stroke="black" stroke-dasharray="5,2" d="M1374.44,-1719.71C1316.9,-1771 1135.81,-1932.43 1073.92,-1987.59"/>
</g>
<!-- RK_adet -->
<g id="node71" class="node">
<title>RK_adet</title>
<ellipse fill="none" stroke="#fbc02d" stroke-dasharray="5,2" cx="1669.83" cy="-1655.25" rx="27" ry="28.8"/>
<text xml:space="preserve" text-anchor="middle" x="1669.83" y="-1652.55" font-family="Times,serif" font-size="9.00">adet</text>
</g>
<!-- Rel_Icerir&#45;&#45;RK_adet -->
<g id="edge67" class="edge">
<title>Rel_Icerir--RK_adet</title>
<path fill="none" stroke="black" stroke-dasharray="5,2" d="M1423.51,-1698.4C1478.39,-1688.78 1591.03,-1669.05 1642.77,-1659.99"/>
</g>
<!-- RK_kul -->
<g id="node72" class="node">
<title>RK_kul</title>
<ellipse fill="none" stroke="#fbc02d" stroke-dasharray="5,2" cx="2083.78" cy="-1291.73" rx="34.38" ry="28.8"/>
<text xml:space="preserve" text-anchor="middle" x="2083.78" y="-1289.03" font-family="Times,serif" font-size="9.00">kullanimsekli</text>
</g>
<!-- Rel_Icerir&#45;&#45;RK_kul -->
<g id="edge68" class="edge">
<title>Rel_Icerir--RK_kul</title>
<path fill="none" stroke="black" stroke-dasharray="5,2" d="M1413.66,-1691.09C1514.54,-1630.97 1941.59,-1376.47 2055.66,-1308.48"/>
</g>
<!-- Rel_Istenir&#45;&#45;Tetkikler -->
<g id="edge70" class="edge">
<title>Rel_Istenir--Tetkikler</title>
<path fill="none" stroke="black" stroke-width="2" d="M825.64,-1315.63C794.17,-1307.1 739.85,-1291.91 693.9,-1276.73 613.68,-1250.22 521.08,-1214.54 472.36,-1195.37"/>
<text xml:space="preserve" text-anchor="middle" x="642.3" y="-1265.05" font-family="Times,serif" font-size="14.00">N</text>
</g>
<!-- IT_ist -->
<g id="node74" class="node">
<title>IT_ist</title>
<ellipse fill="none" stroke="#fbc02d" stroke-dasharray="5,2" cx="611.93" cy="-1389.47" rx="27.5" ry="28.8"/>
<text xml:space="preserve" text-anchor="middle" x="611.93" y="-1386.77" font-family="Times,serif" font-size="9.00">istektarihi</text>
</g>
<!-- Rel_Istenir&#45;&#45;IT_ist -->
<g id="edge71" class="edge">
<title>Rel_Istenir--IT_ist</title>
<path fill="none" stroke="black" stroke-dasharray="5,2" d="M826.13,-1329.76C780.45,-1342.5 685.47,-1368.97 638.88,-1381.96"/>
</g>
<!-- IT_sonT -->
<g id="node75" class="node">
<title>IT_sonT</title>
<ellipse fill="none" stroke="#fbc02d" stroke-dasharray="5,2" cx="750.55" cy="-1488.73" rx="29.62" ry="28.8"/>
<text xml:space="preserve" text-anchor="middle" x="750.55" y="-1486.03" font-family="Times,serif" font-size="9.00">sonuctarihi</text>
</g>
<!-- Rel_Istenir&#45;&#45;IT_sonT -->
<g id="edge72" class="edge">
<title>Rel_Istenir--IT_sonT</title>
<path fill="none" stroke="black" stroke-dasharray="5,2" d="M839.99,-1341.99C821.57,-1372.2 786.03,-1430.51 765.74,-1463.81"/>
</g>
<!-- IT_son -->
<g id="node76" class="node">
<title>IT_son</title>
<ellipse fill="none" stroke="#fbc02d" stroke-dasharray="5,2" cx="837.5" cy="-1161.2" rx="27" ry="28.8"/>
<text xml:space="preserve" text-anchor="middle" x="837.5" y="-1158.5" font-family="Times,serif" font-size="9.00">sonuc</text>
</g>
<!-- Rel_Istenir&#45;&#45;IT_son -->
<g id="edge73" class="edge">
<title>Rel_Istenir--IT_son</title>
<path fill="none" stroke="black" stroke-dasharray="5,2" d="M849.38,-1295.23C846.8,-1266.08 842.73,-1220.15 840.09,-1190.35"/>
</g>
<!-- IT_yor -->
<g id="node77" class="node">
<title>IT_yor</title>
<ellipse fill="none" stroke="#fbc02d" stroke-dasharray="5,2" cx="693.9" cy="-1243.29" rx="27" ry="28.8"/>
<text xml:space="preserve" text-anchor="middle" x="693.9" y="-1240.59" font-family="Times,serif" font-size="9.00">yorum</text>
</g>
<!-- Rel_Istenir&#45;&#45;IT_yor -->
<g id="edge74" class="edge">
<title>Rel_Istenir--IT_yor</title>
<path fill="none" stroke="black" stroke-dasharray="5,2" d="M830.18,-1311.74C801.04,-1297.1 749.29,-1271.11 718.64,-1255.71"/>
</g>
<!-- IT_dur -->
<g id="node78" class="node">
<title>IT_dur</title>
<ellipse fill="none" stroke="#fbc02d" stroke-dasharray="5,2" cx="669.63" cy="-1060.44" rx="27" ry="28.8"/>
<text xml:space="preserve" text-anchor="middle" x="669.63" y="-1057.74" font-family="Times,serif" font-size="9.00">durum</text>
</g>
<!-- Rel_Istenir&#45;&#45;IT_dur -->
<g id="edge75" class="edge">
<title>Rel_Istenir--IT_dur</title>
<path fill="none" stroke="black" stroke-dasharray="5,2" d="M838.99,-1304.17C806.6,-1257.55 721.45,-1135.02 685.74,-1083.64"/>
</g>
</g>
</svg>